PathFileType	4	(X/Y/Z)	E:\Qualisys_Data\Carbon_Farble_Plate\Data\Amateur_Runner\S14\T2\S14T2V13_c3d.trc
DataRate	CameraRate	NumFrames	NumMarkers	Units	OrigDataRate	OrigDataStartFrame	OrigNumFrames
200.000000	200.000000	4	39	mm	200.000000	199	319
Frame#	Time	LSHO			RSHO			LICST			RICST			LASIS			LHEEL			RASIS			LTROC			RTROC			SACR			LTH1			LSK4			LTH2			LTH3			RHM5			LSK2			LTH4			RTH1			LTOE			RTH2			RTH3			RTH4			LLEP			RLEP			LSK1			LSK3			RSK1			LHM5			RSK2			LFT1			RSK3			RSK4			LLME			RLME			RTOE			RHEEL			RFT1			RFT2			LFT2			
		X1	Y1	Z1	X2	Y2	Z2	X3	Y3	Z3	X4	Y4	Z4	X5	Y5	Z5	X6	Y6	Z6	X7	Y7	Z7	X8	Y8	Z8	X9	Y9	Z9	X10	Y10	Z10	X11	Y11	Z11	X12	Y12	Z12	X13	Y13	Z13	X14	Y14	Z14	X15	Y15	Z15	X16	Y16	Z16	X17	Y17	Z17	X18	Y18	Z18	X19	Y19	Z19	X20	Y20	Z20	X21	Y21	Z21	X22	Y22	Z22	X23	Y23	Z23	X24	Y24	Z24	X25	Y25	Z25	X26	Y26	Z26	X27	Y27	Z27	X28	Y28	Z28	X29	Y29	Z29	X30	Y30	Z30	X31	Y31	Z31	X32	Y32	Z32	X33	Y33	Z33	X34	Y34	Z34	X35	Y35	Z35	X36	Y36	Z36	X37	Y37	Z37	X38	Y38	Z38	X39	Y39	Z39	

200	0.995	778.0894165039062	1407.192138671875	-520.5865478515625	829.5223999023438	1396.60693359375	-218.9216156005859	740.9595947265625	953.7175903320312	-501.1385803222656	772.330810546875	962.5150756835938	-222.6617431640625	787.2423706054688	906.002197265625	-477.6401062011719	520.2172241210938	327.9253234863281	-401.4170227050781	797.6566162109375	919.882568359375	-242.0541076660156	664.2850341796875	829.8411254882812	-517.653564453125	655.884033203125	841.7827758789062	-190.7537994384766	615.0703125	940.8153686523438	-391.8880310058594	832.852783203125	648.7625122070312	-536.3164672851562	691.171875	422.3774108886719	-491.0267028808594	769.2191772460938	612.2064208984375	-507.6725158691406	889.5064697265625	567.236083984375	-522.0982666015625	581.935791015625	55.62263107299805	-242.6609802246094	771.51171875	476.2229919433594	-512.3629760742188	821.6201782226562	530.7658081054688	-498.0231018066406	780.3731079101562	618.4508666992188	-201.0129547119141	647.4278564453125	106.5988464355469	-447.2964782714844	702.379150390625	625.06591796875	-193.3890228271484	775.7816162109375	523.2149658203125	-236.4210510253906	692.5880737304688	525.9501953125	-221.8592224121094	865.7232055664062	499.2855224609375	-517.2808227539062	708.8535766601562	453.0345458984375	-233.8857116699219	818.4747924804688	409.2629699707031	-510.9916687011719	734.81884765625	354.4396667480469	-491.48828125	678.4359741210938	332.3791809082031	-238.4022216796875	591.2847900390625	156.8974151611328	-503.0209045410156	603.5272216796875	374.0911865234375	-229.4324645996094	502.0278625488281	303.1366271972656	-378.5545654296875	619.47119140625	248.866455078125	-258.4440612792969	555.2866821289062	292.9971618652344	-246.8209838867188	571.3007202148438	297.6738891601562	-468.6890258789062	485.7781066894531	135.5563354492188	-276.756591796875	659.683349609375	48.18809509277344	-304.70849609375	416.6130065917969	122.9465637207031	-332.4424743652344	423.6504211425781	89.03707885742188	-358.7218017578125	409.4528198242188	99.5746841430664	-304.9368591308594	492.8109741210938	310.1529541015625	-433.8067626953125
201	1.0	791.0786743164062	1411.54541015625	-521.1734008789062	847.2683715820312	1400.89453125	-220.7765350341797	758.3141479492188	958.228271484375	-499.977294921875	789.0250854492188	966.2255859375	-223.6763916015625	803.443603515625	910.0758666992188	-477.4409484863281	545.26513671875	317.5982055664062	-402.1766052246094	814.1098022460938	923.2843627929688	-242.4665985107422	681.4407958984375	834.8614501953125	-518.7530517578125	671.8673095703125	845.9117431640625	-190.346435546875	630.498291015625	945.9718627929688	-392.0559997558594	851.5726928710938	654.5767822265625	-535.8717041015625	713.26025390625	420.0357971191406	-491.1334533691406	788.1148681640625	617.0205688476562	-508.8760681152344	908.9171142578124	573.1984252929688	-520.6248779296875	583.3264770507812	56.01484680175781	-242.2370147705078	791.8146362304688	476.7437133789062	-511.7044677734375	840.8958129882812	535.947998046875	-498.0157775878906	791.2039794921875	620.7643432617188	-201.89111328125	682.952392578125	102.7138748168945	-446.8837585449219	713.1395263671875	628.859375	-193.7918548583984	784.00146484375	525.7183227539062	-237.0529174804688	701.4776000976562	530.2584228515625	-221.8193206787109	885.3565673828125	503.775390625	-516.351318359375	715.7987670898438	456.8631591796875	-233.8081970214844	841.1385498046875	411.530029296875	-509.9497985839844	759.5460205078125	353.1389770507812	-490.95458984375	683.4288940429688	336.9701232910156	-237.6448211669922	625.2366333007812	150.2253570556641	-502.7079162597656	609.31201171875	378.9954223632812	-228.8778533935547	528.3947143554688	292.1582946777344	-379.9244995117188	624.3228149414062	253.438232421875	-257.0453186035156	560.3173217773438	298.1880798339844	-246.3670349121094	598.2000122070312	289.9035034179688	-469.3017272949219	489.4082946777344	140.2547912597656	-275.9915771484375	660.5826416015625	48.05240249633789	-304.3711853027344	420.1884765625	129.9789276123047	-331.1530151367188	426.720703125	95.45400238037108	-357.8402709960938	412.3688659667969	105.7051239013672	-304.5770874023438	518.8946533203125	298.765380859375	-434.4363403320312
202	1.005	804.7293090820312	1415.92529296875	-521.63818359375	865.1708374023438	1405.666259765625	-222.4458465576172	774.8648681640625	962.9752807617188	-499.9586486816406	805.8465576171875	969.9664306640624	-224.2611846923828	819.9599609375	914.7391967773438	-477.59912109375	571.1861572265625	307.2231750488281	-402.5291748046875	830.665283203125	926.5491943359376	-243.11572265625	698.5885009765625	839.9237670898438	-520.2804565429688	687.9711303710938	850.162109375	-190.2592010498047	646.1407470703125	950.4185180664062	-390.6590270996094	870.3763427734375	660.2291870117188	-535.0430297851562	735.1568603515625	417.0666198730469	-490.8262329101562	806.7108764648438	621.9464721679688	-509.0115966796875	927.6165771484376	578.9099731445312	-519.4428100585938	583.796875	56.27558898925781	-241.2382659912109	811.523681640625	476.9068603515625	-511.2052307128906	859.6792602539062	541.1234130859375	-498.0228881835938	802.6610717773438	623.4656372070312	-202.7539520263672	719.1004028320312	99.0819854736328	-446.3226928710938	724.6838989257812	632.8289184570312	-194.2154083251953	793.141845703125	528.59375	-237.6432800292969	710.7291870117188	535.1915893554688	-221.3471221923828	904.9864501953124	508.28515625	-515.44384765625	723.427001953125	460.9363708496094	-233.1327362060547	863.6511840820312	413.2224731445312	-509.0223083496094	784.2839965820312	351.8607177734375	-490.0098571777344	688.5986328125	341.1470031738281	-237.2187194824219	659.137451171875	143.7601928710938	-502.8274536132812	615.2702026367188	384.2598571777344	-228.4247436523438	554.9915161132812	281.3420104980469	-380.2994689941406	628.8781127929688	258.1561279296875	-255.7911376953125	565.6111450195312	303.8282775878906	-245.3540191650391	625.5702514648438	282.0559692382812	-469.185546875	493.3508605957031	145.5242614746094	-274.9534301757812	661.3574829101562	47.85799789428711	-304.1645202636719	424.3034362792969	135.8811798095703	-330.0404663085938	430.5203247070312	102.2758178710938	-357.9183959960938	416.0376586914062	111.5351409912109	-304.2026672363281	545.730224609375	286.9405822753906	-435.164794921875
203	1.01	818.3289794921875	1420.111572265625	-522.2164916992188	882.8102416992188	1410.267944335938	-224.4078826904297	791.1212158203125	967.4891357421876	-499.7676086425781	823.3167114257812	973.5926513671876	-224.9357452392578	835.8428955078125	919.0035400390624	-477.7243957519531	596.620361328125	296.9813842773438	-403.4749145507812	847.7919921875	930.1513061523438	-243.8565673828125	715.7108764648438	845.2694702148438	-521.1737060546875	703.9495239257812	854.214111328125	-189.9470672607422	662.0851440429688	955.6351318359376	-390.7181396484375	888.9950561523438	665.2203979492188	-534.1639404296875	755.908203125	413.576416015625	-491.2148742675781	824.9305419921875	626.842041015625	-510.1221618652344	946.4163208007812	584.8621826171875	-518.1634521484375	586.34228515625	58.38135528564453	-240.2065734863281	831.2196044921875	477.05224609375	-511.2192687988281	878.6432495117188	546.5822143554688	-498.4975280761719	813.8335571289062	626.243408203125	-203.5827331542969	755.0304565429688	95.96395874023438	-445.8128051757812	736.4236450195312	637.2949829101562	-194.5083618164062	802.1881713867188	531.5157470703125	-238.3560180664062	720.3117065429688	539.5066528320312	-221.1669464111328	924.1749267578124	512.6008911132812	-514.2301025390625	730.92138671875	464.9658203125	-232.6212921142578	886.120361328125	415.8032531738281	-508.6393737792969	808.9722290039062	350.9324951171875	-489.8101196289062	694.6820068359375	345.6695556640625	-236.3108062744141	693.3850708007812	137.5001831054688	-502.5179443359375	621.4349975585938	389.3554992675781	-228.2457275390625	582.2130126953125	270.156005859375	-382.1035766601562	634.04443359375	263.0872192382812	-254.9812164306641	570.9409790039062	309.3157043457031	-244.4060516357422	652.9830322265625	274.1355895996094	-469.6083984375	497.8865356445312	150.8091125488281	-273.8880920410156	662.5236206054688	47.74392700195312	-303.494384765625	428.5265502929688	142.3792419433594	-329.4348449707031	434.3480834960938	108.9014511108398	-356.7696533203125	420.0413818359375	118.0829925537109	-303.4436340332031	573.0830688476562	275.4784240722656	-436.0609130859375
